<svg xmlns="http://www.w3.org/2000/svg" viewBox="0 0 512 512" width="512" height="512">
  <defs>
    <linearGradient id="bgBase" x1="0%" y1="0%" x2="100%" y2="100%">
      <stop offset="0%" stop-color="#0A1A2F"/>
      <stop offset="100%" stop-color="#06101E"/>
    </linearGradient>
    <radialGradient id="bgSpot1" cx="30%" cy="25%" r="45%">
      <stop offset="0%" stop-color="#0E2A4A" stop-opacity="0.6"/>
      <stop offset="100%" stop-color="#0A1A2F" stop-opacity="0"/>
    </radialGradient>
    <radialGradient id="bgSpot2" cx="75%" cy="70%" r="40%">
      <stop offset="0%" stop-color="#1A0E2A" stop-opacity="0.35"/>
      <stop offset="100%" stop-color="#06101E" stop-opacity="0"/>
    </radialGradient>
    <radialGradient id="bgVignette" cx="50%" cy="45%" r="60%">
      <stop offset="0%" stop-color="#0A1A2F" stop-opacity="0"/>
      <stop offset="100%" stop-color="#000000" stop-opacity="0.4"/>
    </radialGradient>

    <linearGradient id="cyanFront" x1="0%" y1="0%" x2="100%" y2="100%">
      <stop offset="0%" stop-color="#00D4FF"/>
      <stop offset="100%" stop-color="#0088BB"/>
    </linearGradient>
    <linearGradient id="cyanBack" x1="100%" y1="0%" x2="0%" y2="100%">
      <stop offset="0%" stop-color="#005577"/>
      <stop offset="100%" stop-color="#003B55"/>
    </linearGradient>

    <linearGradient id="fire" x1="0%" y1="100%" x2="100%" y2="0%">
      <stop offset="0%" stop-color="#FF4422"/>
      <stop offset="50%" stop-color="#FF7733"/>
      <stop offset="100%" stop-color="#FFBB44"/>
    </linearGradient>
    <radialGradient id="coreGlow" cx="50%" cy="50%" r="50%">
      <stop offset="0%" stop-color="#FF8833" stop-opacity="0.4"/>
      <stop offset="70%" stop-color="#FF4422" stop-opacity="0.08"/>
      <stop offset="100%" stop-color="#FF4422" stop-opacity="0"/>
    </radialGradient>
    <radialGradient id="coreCenter" cx="50%" cy="45%" r="50%">
      <stop offset="0%" stop-color="#FFFFFF"/>
      <stop offset="35%" stop-color="#FFE0A0"/>
      <stop offset="100%" stop-color="#FF6633"/>
    </radialGradient>

    <filter id="frontGlow" x="-15%" y="-15%" width="130%" height="130%">
      <feGaussianBlur stdDeviation="2.5" result="b"/>
      <feFlood flood-color="#00D4FF" flood-opacity="0.15" result="c"/>
      <feComposite in="c" in2="b" operator="in" result="d"/>
      <feMerge><feMergeNode in="d"/><feMergeNode in="SourceGraphic"/></feMerge>
    </filter>
    <filter id="coreGlowFilter" x="-50%" y="-50%" width="200%" height="200%">
      <feGaussianBlur stdDeviation="4" result="b"/>
      <feFlood flood-color="#FF8833" flood-opacity="0.6" result="c"/>
      <feComposite in="c" in2="b" operator="in" result="d"/>
      <feMerge><feMergeNode in="d"/><feMergeNode in="SourceGraphic"/></feMerge>
    </filter>
    <filter id="shadowFront">
      <feDropShadow dx="0" dy="4" stdDeviation="5" flood-color="#000" flood-opacity="0.45"/>
    </filter>

    <clipPath id="bgClip"><rect width="512" height="512" rx="90"/></clipPath>

    <style>
      @keyframes spinCW {
        from { transform: rotate(0deg); }
        to { transform: rotate(360deg); }
      }
      @keyframes spinCCW {
        from { transform: rotate(0deg); }
        to { transform: rotate(-360deg); }
      }
      .gear-back {
        animation: spinCW 20s linear infinite;
        transform-origin: 355px 130px;
      }
      .gear-front {
        animation: spinCCW 30s linear infinite;
        transform-origin: 256px 215px;
      }
    </style>
  </defs>

  <!-- Background -->
  <rect width="512" height="512" rx="90" fill="url(#bgBase)"/>
  <rect width="512" height="512" rx="90" fill="url(#bgSpot1)"/>
  <rect width="512" height="512" rx="90" fill="url(#bgSpot2)"/>
  <rect width="512" height="512" rx="90" fill="url(#bgVignette)"/>

  <!-- Hex grid -->
  <g clip-path="url(#bgClip)" opacity="0.03" stroke="#00D4FF" stroke-width="0.7" fill="none">
    <polygon points="-11.3,-29.8 -11.3,-18.6 -21.0,-13.0 -30.7,-18.6 -30.7,-29.8 -21.0,-35.4"/>
    <polygon points="30.7,-29.8 30.7,-18.6 21.0,-13.0 11.3,-18.6 11.3,-29.8 21.0,-35.4"/>
    <polygon points="72.7,-29.8 72.7,-18.6 63.0,-13.0 53.3,-18.6 53.3,-29.8 63.0,-35.4"/>
    <polygon points="114.7,-29.8 114.7,-18.6 105.0,-13.0 95.3,-18.6 95.3,-29.8 105.0,-35.4"/>
    <polygon points="156.7,-29.8 156.7,-18.6 147.0,-13.0 137.3,-18.6 137.3,-29.8 147.0,-35.4"/>
    <polygon points="198.7,-29.8 198.7,-18.6 189.0,-13.0 179.3,-18.6 179.3,-29.8 189.0,-35.4"/>
    <polygon points="240.7,-29.8 240.7,-18.6 231.0,-13.0 221.3,-18.6 221.3,-29.8 231.0,-35.4"/>
    <polygon points="282.7,-29.8 282.7,-18.6 273.0,-13.0 263.3,-18.6 263.3,-29.8 273.0,-35.4"/>
    <polygon points="324.7,-29.8 324.7,-18.6 315.0,-13.0 305.3,-18.6 305.3,-29.8 315.0,-35.4"/>
    <polygon points="366.7,-29.8 366.7,-18.6 357.0,-13.0 347.3,-18.6 347.3,-29.8 357.0,-35.4"/>
    <polygon points="408.7,-29.8 408.7,-18.6 399.0,-13.0 389.3,-18.6 389.3,-29.8 399.0,-35.4"/>
    <polygon points="450.7,-29.8 450.7,-18.6 441.0,-13.0 431.3,-18.6 431.3,-29.8 441.0,-35.4"/>
    <polygon points="-32.3,-5.6 -32.3,5.6 -42.0,11.2 -51.7,5.6 -51.7,-5.6 -42.0,-11.2"/>
    <polygon points="9.7,-5.6 9.7,5.6 0.0,11.2 -9.7,5.6 -9.7,-5.6 -0.0,-11.2"/>
    <polygon points="51.7,-5.6 51.7,5.6 42.0,11.2 32.3,5.6 32.3,-5.6 42.0,-11.2"/>
    <polygon points="93.7,-5.6 93.7,5.6 84.0,11.2 74.3,5.6 74.3,-5.6 84.0,-11.2"/>
    <polygon points="135.7,-5.6 135.7,5.6 126.0,11.2 116.3,5.6 116.3,-5.6 126.0,-11.2"/>
    <polygon points="177.7,-5.6 177.7,5.6 168.0,11.2 158.3,5.6 158.3,-5.6 168.0,-11.2"/>
    <polygon points="219.7,-5.6 219.7,5.6 210.0,11.2 200.3,5.6 200.3,-5.6 210.0,-11.2"/>
    <polygon points="261.7,-5.6 261.7,5.6 252.0,11.2 242.3,5.6 242.3,-5.6 252.0,-11.2"/>
    <polygon points="303.7,-5.6 303.7,5.6 294.0,11.2 284.3,5.6 284.3,-5.6 294.0,-11.2"/>
    <polygon points="345.7,-5.6 345.7,5.6 336.0,11.2 326.3,5.6 326.3,-5.6 336.0,-11.2"/>
    <polygon points="387.7,-5.6 387.7,5.6 378.0,11.2 368.3,5.6 368.3,-5.6 378.0,-11.2"/>
    <polygon points="429.7,-5.6 429.7,5.6 420.0,11.2 410.3,5.6 410.3,-5.6 420.0,-11.2"/>
    <polygon points="-11.3,18.6 -11.3,29.8 -21.0,35.4 -30.7,29.8 -30.7,18.6 -21.0,13.0"/>
    <polygon points="30.7,18.6 30.7,29.8 21.0,35.4 11.3,29.8 11.3,18.6 21.0,13.0"/>
    <polygon points="72.7,18.6 72.7,29.8 63.0,35.4 53.3,29.8 53.3,18.6 63.0,13.0"/>
    <polygon points="114.7,18.6 114.7,29.8 105.0,35.4 95.3,29.8 95.3,18.6 105.0,13.0"/>
    <polygon points="156.7,18.6 156.7,29.8 147.0,35.4 137.3,29.8 137.3,18.6 147.0,13.0"/>
    <polygon points="198.7,18.6 198.7,29.8 189.0,35.4 179.3,29.8 179.3,18.6 189.0,13.0"/>
    <polygon points="240.7,18.6 240.7,29.8 231.0,35.4 221.3,29.8 221.3,18.6 231.0,13.0"/>
    <polygon points="282.7,18.6 282.7,29.8 273.0,35.4 263.3,29.8 263.3,18.6 273.0,13.0"/>
    <polygon points="324.7,18.6 324.7,29.8 315.0,35.4 305.3,29.8 305.3,18.6 315.0,13.0"/>
    <polygon points="366.7,18.6 366.7,29.8 357.0,35.4 347.3,29.8 347.3,18.6 357.0,13.0"/>
    <polygon points="408.7,18.6 408.7,29.8 399.0,35.4 389.3,29.8 389.3,18.6 399.0,13.0"/>
    <polygon points="450.7,18.6 450.7,29.8 441.0,35.4 431.3,29.8 431.3,18.6 441.0,13.0"/>
    <polygon points="-32.3,42.9 -32.3,54.1 -42.0,59.7 -51.7,54.1 -51.7,42.9 -42.0,37.3"/>
    <polygon points="9.7,42.9 9.7,54.1 0.0,59.7 -9.7,54.1 -9.7,42.9 -0.0,37.3"/>
    <polygon points="51.7,42.9 51.7,54.1 42.0,59.7 32.3,54.1 32.3,42.9 42.0,37.3"/>
    <polygon points="93.7,42.9 93.7,54.1 84.0,59.7 74.3,54.1 74.3,42.9 84.0,37.3"/>
    <polygon points="135.7,42.9 135.7,54.1 126.0,59.7 116.3,54.1 116.3,42.9 126.0,37.3"/>
    <polygon points="177.7,42.9 177.7,54.1 168.0,59.7 158.3,54.1 158.3,42.9 168.0,37.3"/>
    <polygon points="219.7,42.9 219.7,54.1 210.0,59.7 200.3,54.1 200.3,42.9 210.0,37.3"/>
    <polygon points="261.7,42.9 261.7,54.1 252.0,59.7 242.3,54.1 242.3,42.9 252.0,37.3"/>
    <polygon points="303.7,42.9 303.7,54.1 294.0,59.7 284.3,54.1 284.3,42.9 294.0,37.3"/>
    <polygon points="345.7,42.9 345.7,54.1 336.0,59.7 326.3,54.1 326.3,42.9 336.0,37.3"/>
    <polygon points="387.7,42.9 387.7,54.1 378.0,59.7 368.3,54.1 368.3,42.9 378.0,37.3"/>
    <polygon points="429.7,42.9 429.7,54.1 420.0,59.7 410.3,54.1 410.3,42.9 420.0,37.3"/>
    <polygon points="-11.3,67.1 -11.3,78.3 -21.0,83.9 -30.7,78.3 -30.7,67.1 -21.0,61.5"/>
    <polygon points="30.7,67.1 30.7,78.3 21.0,83.9 11.3,78.3 11.3,67.1 21.0,61.5"/>
    <polygon points="72.7,67.1 72.7,78.3 63.0,83.9 53.3,78.3 53.3,67.1 63.0,61.5"/>
    <polygon points="114.7,67.1 114.7,78.3 105.0,83.9 95.3,78.3 95.3,67.1 105.0,61.5"/>
    <polygon points="156.7,67.1 156.7,78.3 147.0,83.9 137.3,78.3 137.3,67.1 147.0,61.5"/>
    <polygon points="198.7,67.1 198.7,78.3 189.0,83.9 179.3,78.3 179.3,67.1 189.0,61.5"/>
    <polygon points="240.7,67.1 240.7,78.3 231.0,83.9 221.3,78.3 221.3,67.1 231.0,61.5"/>
    <polygon points="282.7,67.1 282.7,78.3 273.0,83.9 263.3,78.3 263.3,67.1 273.0,61.5"/>
    <polygon points="324.7,67.1 324.7,78.3 315.0,83.9 305.3,78.3 305.3,67.1 315.0,61.5"/>
    <polygon points="366.7,67.1 366.7,78.3 357.0,83.9 347.3,78.3 347.3,67.1 357.0,61.5"/>
    <polygon points="408.7,67.1 408.7,78.3 399.0,83.9 389.3,78.3 389.3,67.1 399.0,61.5"/>
    <polygon points="450.7,67.1 450.7,78.3 441.0,83.9 431.3,78.3 431.3,67.1 441.0,61.5"/>
    <polygon points="-32.3,91.4 -32.3,102.6 -42.0,108.2 -51.7,102.6 -51.7,91.4 -42.0,85.8"/>
    <polygon points="9.7,91.4 9.7,102.6 0.0,108.2 -9.7,102.6 -9.7,91.4 -0.0,85.8"/>
    <polygon points="51.7,91.4 51.7,102.6 42.0,108.2 32.3,102.6 32.3,91.4 42.0,85.8"/>
    <polygon points="93.7,91.4 93.7,102.6 84.0,108.2 74.3,102.6 74.3,91.4 84.0,85.8"/>
    <polygon points="135.7,91.4 135.7,102.6 126.0,108.2 116.3,102.6 116.3,91.4 126.0,85.8"/>
    <polygon points="177.7,91.4 177.7,102.6 168.0,108.2 158.3,102.6 158.3,91.4 168.0,85.8"/>
    <polygon points="219.7,91.4 219.7,102.6 210.0,108.2 200.3,102.6 200.3,91.4 210.0,85.8"/>
    <polygon points="261.7,91.4 261.7,102.6 252.0,108.2 242.3,102.6 242.3,91.4 252.0,85.8"/>
    <polygon points="303.7,91.4 303.7,102.6 294.0,108.2 284.3,102.6 284.3,91.4 294.0,85.8"/>
    <polygon points="345.7,91.4 345.7,102.6 336.0,108.2 326.3,102.6 326.3,91.4 336.0,85.8"/>
    <polygon points="387.7,91.4 387.7,102.6 378.0,108.2 368.3,102.6 368.3,91.4 378.0,85.8"/>
    <polygon points="429.7,91.4 429.7,102.6 420.0,108.2 410.3,102.6 410.3,91.4 420.0,85.8"/>
    <polygon points="-11.3,115.6 -11.3,126.8 -21.0,132.4 -30.7,126.8 -30.7,115.6 -21.0,110.0"/>
    <polygon points="30.7,115.6 30.7,126.8 21.0,132.4 11.3,126.8 11.3,115.6 21.0,110.0"/>
    <polygon points="72.7,115.6 72.7,126.8 63.0,132.4 53.3,126.8 53.3,115.6 63.0,110.0"/>
    <polygon points="114.7,115.6 114.7,126.8 105.0,132.4 95.3,126.8 95.3,115.6 105.0,110.0"/>
    <polygon points="156.7,115.6 156.7,126.8 147.0,132.4 137.3,126.8 137.3,115.6 147.0,110.0"/>
    <polygon points="198.7,115.6 198.7,126.8 189.0,132.4 179.3,126.8 179.3,115.6 189.0,110.0"/>
    <polygon points="240.7,115.6 240.7,126.8 231.0,132.4 221.3,126.8 221.3,115.6 231.0,110.0"/>
    <polygon points="282.7,115.6 282.7,126.8 273.0,132.4 263.3,126.8 263.3,115.6 273.0,110.0"/>
    <polygon points="324.7,115.6 324.7,126.8 315.0,132.4 305.3,126.8 305.3,115.6 315.0,110.0"/>
    <polygon points="366.7,115.6 366.7,126.8 357.0,132.4 347.3,126.8 347.3,115.6 357.0,110.0"/>
    <polygon points="408.7,115.6 408.7,126.8 399.0,132.4 389.3,126.8 389.3,115.6 399.0,110.0"/>
    <polygon points="450.7,115.6 450.7,126.8 441.0,132.4 431.3,126.8 431.3,115.6 441.0,110.0"/>
    <polygon points="-32.3,139.9 -32.3,151.1 -42.0,156.7 -51.7,151.1 -51.7,139.9 -42.0,134.3"/>
    <polygon points="9.7,139.9 9.7,151.1 0.0,156.7 -9.7,151.1 -9.7,139.9 -0.0,134.3"/>
    <polygon points="51.7,139.9 51.7,151.1 42.0,156.7 32.3,151.1 32.3,139.9 42.0,134.3"/>
    <polygon points="93.7,139.9 93.7,151.1 84.0,156.7 74.3,151.1 74.3,139.9 84.0,134.3"/>
    <polygon points="135.7,139.9 135.7,151.1 126.0,156.7 116.3,151.1 116.3,139.9 126.0,134.3"/>
    <polygon points="177.7,139.9 177.7,151.1 168.0,156.7 158.3,151.1 158.3,139.9 168.0,134.3"/>
    <polygon points="219.7,139.9 219.7,151.1 210.0,156.7 200.3,151.1 200.3,139.9 210.0,134.3"/>
    <polygon points="261.7,139.9 261.7,151.1 252.0,156.7 242.3,151.1 242.3,139.9 252.0,134.3"/>
    <polygon points="303.7,139.9 303.7,151.1 294.0,156.7 284.3,151.1 284.3,139.9 294.0,134.3"/>
    <polygon points="345.7,139.9 345.7,151.1 336.0,156.7 326.3,151.1 326.3,139.9 336.0,134.3"/>
    <polygon points="387.7,139.9 387.7,151.1 378.0,156.7 368.3,151.1 368.3,139.9 378.0,134.3"/>
    <polygon points="429.7,139.9 429.7,151.1 420.0,156.7 410.3,151.1 410.3,139.9 420.0,134.3"/>
    <polygon points="-11.3,164.1 -11.3,175.3 -21.0,180.9 -30.7,175.3 -30.7,164.1 -21.0,158.5"/>
    <polygon points="30.7,164.1 30.7,175.3 21.0,180.9 11.3,175.3 11.3,164.1 21.0,158.5"/>
    <polygon points="72.7,164.1 72.7,175.3 63.0,180.9 53.3,175.3 53.3,164.1 63.0,158.5"/>
    <polygon points="114.7,164.1 114.7,175.3 105.0,180.9 95.3,175.3 95.3,164.1 105.0,158.5"/>
    <polygon points="156.7,164.1 156.7,175.3 147.0,180.9 137.3,175.3 137.3,164.1 147.0,158.5"/>
    <polygon points="198.7,164.1 198.7,175.3 189.0,180.9 179.3,175.3 179.3,164.1 189.0,158.5"/>
    <polygon points="240.7,164.1 240.7,175.3 231.0,180.9 221.3,175.3 221.3,164.1 231.0,158.5"/>
    <polygon points="282.7,164.1 282.7,175.3 273.0,180.9 263.3,175.3 263.3,164.1 273.0,158.5"/>
    <polygon points="324.7,164.1 324.7,175.3 315.0,180.9 305.3,175.3 305.3,164.1 315.0,158.5"/>
    <polygon points="366.7,164.1 366.7,175.3 357.0,180.9 347.3,175.3 347.3,164.1 357.0,158.5"/>
    <polygon points="408.7,164.1 408.7,175.3 399.0,180.9 389.3,175.3 389.3,164.1 399.0,158.5"/>
    <polygon points="450.7,164.1 450.7,175.3 441.0,180.9 431.3,175.3 431.3,164.1 441.0,158.5"/>
    <polygon points="-32.3,188.4 -32.3,199.6 -42.0,205.2 -51.7,199.6 -51.7,188.4 -42.0,182.8"/>
    <polygon points="9.7,188.4 9.7,199.6 0.0,205.2 -9.7,199.6 -9.7,188.4 -0.0,182.8"/>
    <polygon points="51.7,188.4 51.7,199.6 42.0,205.2 32.3,199.6 32.3,188.4 42.0,182.8"/>
    <polygon points="93.7,188.4 93.7,199.6 84.0,205.2 74.3,199.6 74.3,188.4 84.0,182.8"/>
    <polygon points="135.7,188.4 135.7,199.6 126.0,205.2 116.3,199.6 116.3,188.4 126.0,182.8"/>
    <polygon points="177.7,188.4 177.7,199.6 168.0,205.2 158.3,199.6 158.3,188.4 168.0,182.8"/>
    <polygon points="219.7,188.4 219.7,199.6 210.0,205.2 200.3,199.6 200.3,188.4 210.0,182.8"/>
    <polygon points="261.7,188.4 261.7,199.6 252.0,205.2 242.3,199.6 242.3,188.4 252.0,182.8"/>
    <polygon points="303.7,188.4 303.7,199.6 294.0,205.2 284.3,199.6 284.3,188.4 294.0,182.8"/>
    <polygon points="345.7,188.4 345.7,199.6 336.0,205.2 326.3,199.6 326.3,188.4 336.0,182.8"/>
    <polygon points="387.7,188.4 387.7,199.6 378.0,205.2 368.3,199.6 368.3,188.4 378.0,182.8"/>
    <polygon points="429.7,188.4 429.7,199.6 420.0,205.2 410.3,199.6 410.3,188.4 420.0,182.8"/>
    <polygon points="-11.3,212.6 -11.3,223.8 -21.0,229.4 -30.7,223.8 -30.7,212.6 -21.0,207.0"/>
    <polygon points="30.7,212.6 30.7,223.8 21.0,229.4 11.3,223.8 11.3,212.6 21.0,207.0"/>
    <polygon points="72.7,212.6 72.7,223.8 63.0,229.4 53.3,223.8 53.3,212.6 63.0,207.0"/>
    <polygon points="114.7,212.6 114.7,223.8 105.0,229.4 95.3,223.8 95.3,212.6 105.0,207.0"/>
    <polygon points="156.7,212.6 156.7,223.8 147.0,229.4 137.3,223.8 137.3,212.6 147.0,207.0"/>
    <polygon points="198.7,212.6 198.7,223.8 189.0,229.4 179.3,223.8 179.3,212.6 189.0,207.0"/>
    <polygon points="240.7,212.6 240.7,223.8 231.0,229.4 221.3,223.8 221.3,212.6 231.0,207.0"/>
    <polygon points="282.7,212.6 282.7,223.8 273.0,229.4 263.3,223.8 263.3,212.6 273.0,207.0"/>
    <polygon points="324.7,212.6 324.7,223.8 315.0,229.4 305.3,223.8 305.3,212.6 315.0,207.0"/>
    <polygon points="366.7,212.6 366.7,223.8 357.0,229.4 347.3,223.8 347.3,212.6 357.0,207.0"/>
    <polygon points="408.7,212.6 408.7,223.8 399.0,229.4 389.3,223.8 389.3,212.6 399.0,207.0"/>
    <polygon points="450.7,212.6 450.7,223.8 441.0,229.4 431.3,223.8 431.3,212.6 441.0,207.0"/>
    <polygon points="-32.3,236.9 -32.3,248.1 -42.0,253.7 -51.7,248.1 -51.7,236.9 -42.0,231.3"/>
    <polygon points="9.7,236.9 9.7,248.1 0.0,253.7 -9.7,248.1 -9.7,236.9 -0.0,231.3"/>
    <polygon points="51.7,236.9 51.7,248.1 42.0,253.7 32.3,248.1 32.3,236.9 42.0,231.3"/>
    <polygon points="93.7,236.9 93.7,248.1 84.0,253.7 74.3,248.1 74.3,236.9 84.0,231.3"/>
    <polygon points="135.7,236.9 135.7,248.1 126.0,253.7 116.3,248.1 116.3,236.9 126.0,231.3"/>
    <polygon points="177.7,236.9 177.7,248.1 168.0,253.7 158.3,248.1 158.3,236.9 168.0,231.3"/>
    <polygon points="219.7,236.9 219.7,248.1 210.0,253.7 200.3,248.1 200.3,236.9 210.0,231.3"/>
    <polygon points="261.7,236.9 261.7,248.1 252.0,253.7 242.3,248.1 242.3,236.9 252.0,231.3"/>
    <polygon points="303.7,236.9 303.7,248.1 294.0,253.7 284.3,248.1 284.3,236.9 294.0,231.3"/>
    <polygon points="345.7,236.9 345.7,248.1 336.0,253.7 326.3,248.1 326.3,236.9 336.0,231.3"/>
    <polygon points="387.7,236.9 387.7,248.1 378.0,253.7 368.3,248.1 368.3,236.9 378.0,231.3"/>
    <polygon points="429.7,236.9 429.7,248.1 420.0,253.7 410.3,248.1 410.3,236.9 420.0,231.3"/>
    <polygon points="-11.3,261.1 -11.3,272.3 -21.0,277.9 -30.7,272.3 -30.7,261.1 -21.0,255.5"/>
    <polygon points="30.7,261.1 30.7,272.3 21.0,277.9 11.3,272.3 11.3,261.1 21.0,255.5"/>
    <polygon points="72.7,261.1 72.7,272.3 63.0,277.9 53.3,272.3 53.3,261.1 63.0,255.5"/>
    <polygon points="114.7,261.1 114.7,272.3 105.0,277.9 95.3,272.3 95.3,261.1 105.0,255.5"/>
    <polygon points="156.7,261.1 156.7,272.3 147.0,277.9 137.3,272.3 137.3,261.1 147.0,255.5"/>
    <polygon points="198.7,261.1 198.7,272.3 189.0,277.9 179.3,272.3 179.3,261.1 189.0,255.5"/>
    <polygon points="240.7,261.1 240.7,272.3 231.0,277.9 221.3,272.3 221.3,261.1 231.0,255.5"/>
    <polygon points="282.7,261.1 282.7,272.3 273.0,277.9 263.3,272.3 263.3,261.1 273.0,255.5"/>
    <polygon points="324.7,261.1 324.7,272.3 315.0,277.9 305.3,272.3 305.3,261.1 315.0,255.5"/>
    <polygon points="366.7,261.1 366.7,272.3 357.0,277.9 347.3,272.3 347.3,261.1 357.0,255.5"/>
    <polygon points="408.7,261.1 408.7,272.3 399.0,277.9 389.3,272.3 389.3,261.1 399.0,255.5"/>
    <polygon points="450.7,261.1 450.7,272.3 441.0,277.9 431.3,272.3 431.3,261.1 441.0,255.5"/>
    <polygon points="-32.3,285.4 -32.3,296.6 -42.0,302.2 -51.7,296.6 -51.7,285.4 -42.0,279.8"/>
    <polygon points="9.7,285.4 9.7,296.6 0.0,302.2 -9.7,296.6 -9.7,285.4 -0.0,279.8"/>
    <polygon points="51.7,285.4 51.7,296.6 42.0,302.2 32.3,296.6 32.3,285.4 42.0,279.8"/>
    <polygon points="93.7,285.4 93.7,296.6 84.0,302.2 74.3,296.6 74.3,285.4 84.0,279.8"/>
    <polygon points="135.7,285.4 135.7,296.6 126.0,302.2 116.3,296.6 116.3,285.4 126.0,279.8"/>
    <polygon points="177.7,285.4 177.7,296.6 168.0,302.2 158.3,296.6 158.3,285.4 168.0,279.8"/>
    <polygon points="219.7,285.4 219.7,296.6 210.0,302.2 200.3,296.6 200.3,285.4 210.0,279.8"/>
    <polygon points="261.7,285.4 261.7,296.6 252.0,302.2 242.3,296.6 242.3,285.4 252.0,279.8"/>
    <polygon points="303.7,285.4 303.7,296.6 294.0,302.2 284.3,296.6 284.3,285.4 294.0,279.8"/>
    <polygon points="345.7,285.4 345.7,296.6 336.0,302.2 326.3,296.6 326.3,285.4 336.0,279.8"/>
    <polygon points="387.7,285.4 387.7,296.6 378.0,302.2 368.3,296.6 368.3,285.4 378.0,279.8"/>
    <polygon points="429.7,285.4 429.7,296.6 420.0,302.2 410.3,296.6 410.3,285.4 420.0,279.8"/>
    <polygon points="-11.3,309.6 -11.3,320.8 -21.0,326.4 -30.7,320.8 -30.7,309.6 -21.0,304.0"/>
    <polygon points="30.7,309.6 30.7,320.8 21.0,326.4 11.3,320.8 11.3,309.6 21.0,304.0"/>
    <polygon points="72.7,309.6 72.7,320.8 63.0,326.4 53.3,320.8 53.3,309.6 63.0,304.0"/>
    <polygon points="114.7,309.6 114.7,320.8 105.0,326.4 95.3,320.8 95.3,309.6 105.0,304.0"/>
    <polygon points="156.7,309.6 156.7,320.8 147.0,326.4 137.3,320.8 137.3,309.6 147.0,304.0"/>
    <polygon points="198.7,309.6 198.7,320.8 189.0,326.4 179.3,320.8 179.3,309.6 189.0,304.0"/>
    <polygon points="240.7,309.6 240.7,320.8 231.0,326.4 221.3,320.8 221.3,309.6 231.0,304.0"/>
    <polygon points="282.7,309.6 282.7,320.8 273.0,326.4 263.3,320.8 263.3,309.6 273.0,304.0"/>
    <polygon points="324.7,309.6 324.7,320.8 315.0,326.4 305.3,320.8 305.3,309.6 315.0,304.0"/>
    <polygon points="366.7,309.6 366.7,320.8 357.0,326.4 347.3,320.8 347.3,309.6 357.0,304.0"/>
    <polygon points="408.7,309.6 408.7,320.8 399.0,326.4 389.3,320.8 389.3,309.6 399.0,304.0"/>
    <polygon points="450.7,309.6 450.7,320.8 441.0,326.4 431.3,320.8 431.3,309.6 441.0,304.0"/>
  </g>

  <!-- Back gear (rotating clockwise, slow) -->
  <g class="gear-back" opacity="0.65">
    <g transform="translate(355,130)">
      <path d="M 42.50,-17.60 L 45.43,-7.21 L 57.60,-6.80 L 57.60,6.80 L 45.43,7.21 L 42.50,17.60 L 37.22,27.02 L 45.54,35.92 L 35.92,45.54 L 27.02,37.22 L 17.60,42.50 L 7.21,45.43 L 6.80,57.60 L -6.80,57.60 L -7.21,45.43 L -17.60,42.50 L -27.02,37.22 L -35.92,45.54 L -45.54,35.92 L -37.22,27.02 L -42.50,17.60 L -45.43,7.21 L -57.60,6.80 L -57.60,-6.80 L -45.43,-7.21 L -42.50,-17.60 L -37.22,-27.02 L -45.54,-35.92 L -35.92,-45.54 L -27.02,-37.22 L -17.60,-42.50 L -7.21,-45.43 L -6.80,-57.60 L 6.80,-57.60 L 7.21,-45.43 L 17.60,-42.50 L 27.02,-37.22 L 35.92,-45.54 L 45.54,-35.92 L 37.22,-27.02 Z" fill="url(#cyanBack)"/>
    </g>
  </g>
  <!-- Back gear static center (doesn't rotate) -->
  <circle cx="355" cy="130" r="38" fill="#0A1A2F"/>
  <circle cx="355" cy="130" r="14" fill="url(#cyanBack)" opacity="0.6"/>
  <circle cx="355" cy="130" r="7" fill="#0A1A2F"/>

  <!-- Front gear (rotating counter-clockwise, slower) -->
  <g filter="url(#shadowFront)">
    <g class="gear-front">
      <g transform="translate(256,215)">
        <path d="M 91.76,-24.59 L 94.41,-10.58 L 114.71,-8.23 L 114.71,8.23 L 94.41,10.58 L 91.76,24.59 L 87.05,38.04 L 103.45,50.22 L 95.22,64.48 L 76.47,56.37 L 67.18,67.18 L 56.37,76.47 L 64.48,95.22 L 50.22,103.45 L 38.04,87.05 L 24.59,91.76 L 10.58,94.41 L 8.23,114.71 L -8.23,114.71 L -10.58,94.41 L -24.59,91.76 L -38.04,87.05 L -50.22,103.45 L -64.48,95.22 L -56.37,76.47 L -67.18,67.18 L -76.47,56.37 L -95.22,64.48 L -103.45,50.22 L -87.05,38.04 L -91.76,24.59 L -94.41,10.58 L -114.71,8.23 L -114.71,-8.23 L -94.41,-10.58 L -91.76,-24.59 L -87.05,-38.04 L -103.45,-50.22 L -95.22,-64.48 L -76.47,-56.37 L -67.18,-67.18 L -56.37,-76.47 L -64.48,-95.22 L -50.22,-103.45 L -38.04,-87.05 L -24.59,-91.76 L -10.58,-94.41 L -8.23,-114.71 L 8.23,-114.71 L 10.58,-94.41 L 24.59,-91.76 L 38.04,-87.05 L 50.22,-103.45 L 64.48,-95.22 L 56.37,-76.47 L 67.18,-67.18 L 76.47,-56.37 L 95.22,-64.48 L 103.45,-50.22 L 87.05,-38.04 Z" fill="url(#cyanFront)" filter="url(#frontGlow)"/>
      </g>
    </g>
  </g>
  <!-- Front gear static center -->
  <circle cx="256" cy="215" r="78" fill="#0A1A2F"/>
  <circle cx="256" cy="215" r="72" fill="none" stroke="#00D4FF" stroke-width="1" opacity="0.12"/>
  <circle cx="256" cy="215" r="24" fill="url(#cyanFront)" opacity="0.7"/>
  <circle cx="256" cy="215" r="14" fill="#0A1A2F"/>

  <!-- Energy core -->
  <circle cx="256" cy="215" r="55" fill="url(#coreGlow)"/>
  <circle cx="256" cy="215" r="10" fill="url(#coreCenter)" filter="url(#coreGlowFilter)"/>
  <circle cx="256" cy="215" r="3.5" fill="#fff" opacity="0.9"/>

  <!-- Text -->
  <text x="256" y="396" text-anchor="middle" font-family="'Segoe UI Black','Arial Black',Impact,sans-serif" font-weight="900" font-size="50" letter-spacing="4" fill="#D8EDF3">ASSEMBLY</text>
  <text x="256" y="444" text-anchor="middle" font-family="'Segoe UI Black','Arial Black',Impact,sans-serif" font-weight="900" font-size="42" letter-spacing="7" fill="url(#fire)">LINE</text>

</svg>